<?xml version="1.0" standalone="no"?>
<!DOCTYPE svg PUBLIC "-//W3C//DTD SVG 20010904//EN"
 "http://www.w3.org/TR/2001/REC-SVG-20010904/DTD/svg10.dtd">
<svg version="1.0" xmlns="http://www.w3.org/2000/svg"
 width="500.000000pt" height="500.000000pt" viewBox="0 0 500.000000 500.000000"
 preserveAspectRatio="xMidYMid meet">

<g transform="translate(0.000000,500.000000) scale(0.100000,-0.100000)"
fill="#000000" stroke="none">
<path d="M2418 4265 c-52 -29 -72 -99 -44 -154 46 -87 174 -80 211 12 19 47 8
91 -30 127 -30 29 -100 36 -137 15z"/>
<path d="M1392 4022 c-54 -50 -54 -118 0 -172 l30 -31 -147 -589 -147 -589 25
-43 c34 -58 61 -82 132 -115 56 -26 69 -28 180 -28 101 1 129 4 179 24 64 26
123 77 148 132 17 35 17 36 -131 624 l-147 590 31 27 31 26 69 -13 c108 -21
178 -49 335 -134 173 -94 244 -125 328 -142 l62 -13 0 -803 0 -803 -90 0 -90
0 0 -55 0 -55 -100 0 -100 0 0 -50 0 -50 520 0 520 0 0 50 0 50 -105 0 -105 0
0 55 0 55 -120 0 -120 0 2 802 3 802 80 20 c57 14 141 51 291 127 208 107 301
142 406 153 48 6 56 4 87 -23 l33 -29 -146 -592 -147 -592 26 -44 c67 -114
236 -169 418 -134 108 20 199 88 230 171 3 9 -61 283 -143 608 l-148 592 22
15 c45 29 58 92 31 144 -21 41 -53 60 -101 60 -33 0 -51 -7 -84 -35 -31 -26
-51 -35 -79 -35 -49 0 -179 -34 -264 -70 -37 -16 -125 -60 -195 -99 -125 -69
-225 -112 -290 -124 l-33 -7 3 108 3 107 53 3 52 3 0 50 0 49 -215 0 -215 0 0
-50 0 -50 55 0 55 0 0 -111 c0 -100 -2 -110 -17 -105 -10 3 -38 10 -63 16 -49
13 -185 79 -293 142 -118 69 -314 138 -391 138 -16 0 -31 9 -41 23 -35 54
-125 64 -173 19z m58 -802 l0 -550 -141 0 c-109 0 -140 3 -137 13 3 6 65 254
139 550 74 295 135 537 136 537 2 0 3 -247 3 -550z m2056 -547 c-2 -2 -64 -2
-139 -1 l-135 3 136 548 137 549 3 -548 c1 -301 1 -549 -2 -551z m189 530
l132 -533 -138 0 -139 0 1 553 c1 303 3 543 6 532 3 -11 65 -260 138 -552z
m-2062 5 l135 -538 -139 0 -139 0 1 548 c0 301 2 543 4 537 3 -5 65 -252 138
-547z"/>
<path d="M832 1458 c1 -80 3 -98 7 -63 5 44 9 50 31 53 31 4 50 28 50 63 0 36
-24 59 -61 59 l-29 0 2 -112z m70 77 c16 -36 -3 -75 -37 -75 -23 0 -25 4 -25
43 0 24 3 47 7 50 15 15 44 5 55 -18z"/>
<path d="M3430 1470 l-5 -105 -27 0 c-14 1 -24 -3 -22 -7 8 -13 54 -9 60 5 2
7 3 58 2 113 l-3 99 -5 -105z"/>
<path d="M1213 1503 c-9 -3 -12 -28 -11 -81 l2 -77 3 72 c4 67 5 72 31 82 21
7 22 9 7 9 -11 0 -26 -2 -32 -5z"/>
<path d="M1549 1488 c-13 -24 -16 -109 -5 -127 12 -19 64 -13 76 8 14 27 13
114 -2 129 -20 20 -56 14 -69 -10z m59 0 c15 -15 16 -82 2 -109 -13 -23 -46
-25 -54 -3 -3 9 -6 35 -6 58 0 41 13 66 35 66 6 0 16 -5 23 -12z"/>
<path d="M1936 1497 c-22 -16 -31 -83 -17 -119 9 -23 16 -28 43 -27 l33 1 -29
7 c-22 4 -32 14 -37 35 -15 56 12 116 46 102 8 -3 15 -1 15 4 0 14 -33 12 -54
-3z"/>
<path d="M2286 1488 c-19 -26 -21 -109 -4 -126 14 -14 64 -16 72 -3 3 4 -6 6
-19 3 -30 -5 -55 13 -55 39 0 15 8 19 40 19 39 0 40 1 40 33 0 57 -45 77 -74
35z m62 -26 c3 -31 2 -32 -32 -32 -40 0 -45 13 -20 48 22 32 48 24 52 -16z"/>
<path d="M2658 1499 c-27 -15 -22 -30 24 -70 38 -33 41 -38 28 -54 -9 -11 -24
-15 -41 -13 -16 3 -26 1 -23 -4 8 -12 58 -10 72 4 21 21 13 45 -25 75 -44 36
-41 68 7 61 16 -2 27 -1 24 4 -7 11 -45 10 -66 -3z"/>
<path d="M3028 1499 c-27 -15 -22 -30 24 -70 38 -33 41 -38 28 -54 -9 -11 -24
-15 -41 -13 -16 3 -26 1 -23 -4 8 -12 58 -10 72 4 21 21 13 45 -25 75 -44 36
-41 68 7 61 16 -2 27 -1 24 4 -7 11 -45 10 -66 -3z"/>
<path d="M3744 1435 l1 -80 40 0 40 0 1 80 1 80 -6 -75 -6 -75 -30 0 -30 0 -6
75 -6 75 1 -80z"/>
<path d="M4133 1503 c-9 -3 -12 -28 -11 -81 l2 -77 3 72 c4 67 5 72 31 82 21
7 22 9 7 9 -11 0 -26 -2 -32 -5z"/>
<path d="M4287 1444 c-19 -19 2 -24 104 -24 84 0 110 3 107 13 -5 13 -198 23
-211 11z"/>
<path d="M507 1434 c-19 -19 2 -24 104 -24 84 0 110 3 107 13 -5 13 -198 23
-211 11z"/>
</g>
</svg>
