<?xml version="1.0" standalone="no"?>
<!DOCTYPE svg PUBLIC "-//W3C//DTD SVG 20010904//EN"
 "http://www.w3.org/TR/2001/REC-SVG-20010904/DTD/svg10.dtd">
<svg version="1.0" xmlns="http://www.w3.org/2000/svg"
 width="500.000000pt" height="500.000000pt" viewBox="0 0 500.000000 500.000000"
 preserveAspectRatio="xMidYMid meet">

<g transform="translate(0.000000,500.000000) scale(0.100000,-0.100000)"
fill="#000000" stroke="none">
<path d="M0 2500 l0 -2500 2500 0 2500 0 0 2500 0 2500 -2500 0 -2500 0 0
-2500z m2541 1763 c65 -39 74 -131 18 -183 -54 -52 -135 -43 -176 19 -28 42
-29 86 -3 129 32 52 105 68 161 35z m-1034 -213 c9 0 30 -15 47 -33 25 -27 42
-35 83 -40 92 -11 234 -66 395 -153 161 -88 227 -117 298 -133 l40 -9 0 104 0
104 -55 0 -55 0 0 55 0 55 215 0 215 0 0 -55 0 -55 -55 0 -55 0 0 -100 c0 -98
0 -100 23 -100 53 0 130 33 348 148 154 82 275 126 385 142 62 8 81 15 104 39
75 75 200 21 200 -86 0 -37 -5 -50 -32 -76 l-32 -32 148 -592 148 -592 -25
-43 c-34 -58 -61 -82 -132 -115 -56 -26 -68 -28 -190 -28 -146 1 -188 13 -260
76 -39 34 -91 129 -76 139 8 5 296 1150 290 1153 -2 1 -18 15 -35 30 -31 28
-32 28 -100 17 -107 -17 -188 -46 -334 -123 -216 -114 -268 -137 -349 -156
l-76 -18 -3 -802 -2 -801 125 0 125 0 0 -55 0 -55 101 0 100 0 -3 -52 -3 -53
-517 -3 -518 -2 0 55 0 55 95 0 95 0 0 55 0 55 95 0 95 0 0 805 0 805 -27 0
c-51 0 -192 57 -341 137 -177 96 -252 127 -354 146 l-77 14 -27 -28 -26 -28
145 -586 c119 -476 144 -591 136 -612 -20 -53 -70 -102 -137 -135 -65 -32 -69
-33 -197 -33 -111 1 -137 4 -177 22 -61 28 -120 83 -142 131 l-17 38 145 589
146 589 -24 21 c-51 43 -60 101 -23 156 22 34 79 62 105 53 8 -2 21 -4 29 -4z
m-598 -2494 c7 -8 11 -32 9 -53 -2 -32 -8 -40 -35 -53 -29 -13 -33 -19 -33
-57 0 -24 -4 -43 -10 -43 -6 0 -10 43 -10 110 l0 110 34 0 c18 0 39 -6 45 -14z
m2527 -193 c-6 -16 -52 -17 -62 -2 -4 8 1 9 16 4 33 -10 39 7 42 115 l2 95 3
-99 c2 -55 1 -106 -1 -113z m-2176 138 c0 -5 -10 -11 -22 -13 -21 -3 -24 -10
-29 -73 l-5 -70 -2 76 c-1 42 1 79 5 82 10 10 53 8 53 -2z m361 -8 c8 -9 14
-37 14 -63 0 -56 -17 -80 -56 -80 -23 0 -32 6 -40 28 -12 32 -6 96 11 117 17
20 54 19 71 -2z m369 6 c0 -5 -4 -7 -10 -4 -5 3 -19 1 -30 -5 -16 -8 -20 -21
-20 -59 0 -55 17 -77 51 -66 14 5 19 4 15 -4 -12 -19 -64 -13 -76 8 -15 29
-12 93 6 119 15 22 64 31 64 11z m370 -13 c5 -13 6 -33 3 -45 -4 -17 -13 -21
-44 -21 -44 0 -43 1 -29 -36 9 -23 15 -26 40 -20 17 3 30 1 30 -4 0 -14 -64
-12 -78 2 -18 18 -15 113 4 132 24 25 63 20 74 -8z m370 13 c0 -6 -7 -8 -16
-5 -23 9 -54 -2 -54 -19 0 -8 14 -22 30 -32 32 -18 47 -51 36 -78 -6 -16 -86
-22 -86 -6 0 5 15 8 33 7 48 -2 49 32 2 68 -37 28 -43 44 -23 64 15 15 78 16
78 1z m370 0 c0 -6 -7 -8 -16 -5 -23 9 -54 -2 -54 -19 0 -8 14 -22 30 -32 32
-18 47 -51 36 -78 -6 -16 -86 -22 -86 -6 0 5 15 8 33 7 48 -2 49 32 2 68 -37
28 -43 44 -23 64 15 15 78 16 78 1z m652 -61 c3 -70 4 -73 28 -73 24 0 25 3
28 73 4 98 22 92 22 -8 l0 -80 -40 0 c-49 0 -60 17 -60 99 0 86 19 76 22 -11z
m428 63 c0 -5 -10 -11 -22 -13 -21 -3 -24 -10 -29 -73 l-5 -70 -2 76 c-1 42 1
79 5 82 10 10 53 8 53 -2z m318 -68 c3 -10 -23 -13 -107 -13 -102 0 -123 5
-104 24 13 12 206 2 211 -11z m-3778 -8 c0 -12 -19 -15 -110 -15 -91 0 -110 3
-110 15 0 12 19 15 110 15 91 0 110 -3 110 -15z"/>
<path d="M1309 3215 l-136 -545 138 0 139 0 0 545 c0 300 -1 545 -3 545 -1 0
-63 -245 -138 -545z"/>
<path d="M1490 3218 l0 -548 135 0 c102 0 135 3 135 13 -1 6 -61 253 -135 547
l-134 535 -1 -547z"/>
<path d="M3369 3215 l-136 -545 138 0 139 0 0 545 c0 300 -1 545 -3 545 -1 0
-63 -245 -138 -545z"/>
<path d="M3551 3218 l-1 -548 135 0 c102 0 135 3 135 13 -1 6 -61 253 -134
547 l-134 535 -1 -547z"/>
<path d="M850 1510 c0 -44 3 -50 20 -50 36 0 48 70 16 92 -27 18 -36 7 -36
-42z"/>
<path d="M1565 1484 c-22 -23 -17 -103 8 -118 15 -9 21 -7 33 8 19 26 18 91
-2 110 -19 20 -19 20 -39 0z"/>
<path d="M2302 1488 c-5 -7 -12 -22 -14 -33 -4 -27 49 -35 59 -9 12 32 -24 66
-45 42z"/>
</g>
</svg>
